<?xml version="1.0" encoding="iso-8859-1"?>
<!-- Generator: Adobe Illustrator 19.0.0, SVG Export Plug-In . SVG Version: 6.00 Build 0)  -->
<svg version="1.1" id="Capa_1" xmlns="http://www.w3.org/2000/svg" xmlns:xlink="http://www.w3.org/1999/xlink" x="0px" y="0px"
	 viewBox="0 0 512 512" style="enable-background:new 0 0 512 512;" xml:space="preserve">
<path id="SVGCleanerId_0" style="fill:#F2D59F;" d="M84.431,488.172c107.3,9.252,235.419,9.255,342.919-0.067
	c6.378-0.833,24.737-5.311,24.737-29.319v-181.42c-120.005,12.419-272.016,12.454-392.186,0.1v181.32
	C59.902,458.786,60.603,486.164,84.431,488.172z"/>
<g>
	<path id="SVGCleanerId_0_1_" style="fill:#F2D59F;" d="M84.431,488.172c107.3,9.252,235.419,9.255,342.919-0.067
		c6.378-0.833,24.737-5.311,24.737-29.319v-181.42c-120.005,12.419-272.016,12.454-392.186,0.1v181.32
		C59.902,458.786,60.603,486.164,84.431,488.172z"/>
</g>
<path style="fill:#EDBF77;" d="M86.869,462.908v-182.92c-9.212-0.78-18.209-1.621-26.968-2.522v181.32
	c0,0,0.702,27.378,24.529,29.385c5.632,0.486,11.361,0.944,17.153,1.382C87.371,482.156,86.869,462.908,86.869,462.908z"/>
<path style="fill:#F2902F;" d="M59.902,277.466v36.591c56.98,5.858,123.958,9.235,195.631,9.235
	c72.067,0,139.374-3.417,196.555-9.335v-36.592C332.082,289.785,180.071,289.82,59.902,277.466z"/>
<path style="fill:#E57B1C;" d="M86.869,279.988c-8.595-0.727-18.281-1.629-26.968-2.522v36.591c8.759,0.9,17.756,1.742,26.968,2.522
	V279.988z"/>
<path style="fill:#6D5248;" d="M255.995,362.102L255.995,362.102c-33.213,0-60.386,27.174-60.386,60.386v71.805
	c40.141,1.085,80.626,1.077,120.772-0.026v-71.778C316.381,389.275,289.207,362.102,255.995,362.102z"/>
<path style="fill:#60433A;" d="M221.365,422.488c0-28.795,20.43-53.036,47.508-58.98c-37.761-8.288-73.265,20.839-73.265,58.98
	v71.805c8.49,0.229,17.089,0.403,25.757,0.536L221.365,422.488L221.365,422.488z"/>
<path style="fill:#6D5248;" d="M511.773,251.393C488.915,147.447,386.112,77.855,276.552,60.207h-42.038
	C116.469,79.222,23.664,152.945,0.468,246.365c0.088,0.113-5.621,23.069,20.586,26.517c0.216,0.027,0.453,0.059,0.706,0.096
	c138.081,18.485,334.754,18.316,471.775-0.577C500.075,271.183,513.938,266.759,511.773,251.393z"/>
<path style="fill:#60433A;" d="M101.912,277.86c15.879-109.225,79.41-195.421,160.219-217.653h-27.617
	C116.469,79.222,23.664,152.945,0.468,246.365c0.088,0.113-5.621,23.069,20.586,26.517c0.216,0.027,0.453,0.059,0.706,0.096
	c24.347,3.259,51.16,6.02,79.883,8.192C101.737,279.137,101.912,277.86,101.912,277.86z"/>
<path style="fill:#F2D59F;" d="M255.994,16.896c-11.863,0-21.48,9.617-21.48,21.48v21.831h42.96V38.376
	C277.474,26.513,267.857,16.896,255.994,16.896z"/>
<path style="fill:#EDBF77;" d="M266.377,19.576c-3.078-1.704-6.615-2.68-10.383-2.68c-11.863,0-21.48,9.617-21.48,21.48v21.831
	h20.765V38.376C255.279,30.281,259.762,23.237,266.377,19.576z"/>
<g>
</g>
<g>
</g>
<g>
</g>
<g>
</g>
<g>
</g>
<g>
</g>
<g>
</g>
<g>
</g>
<g>
</g>
<g>
</g>
<g>
</g>
<g>
</g>
<g>
</g>
<g>
</g>
<g>
</g>
</svg>
