<?xml version="1.0" encoding="iso-8859-1"?>
<!-- Generator: Adobe Illustrator 19.0.0, SVG Export Plug-In . SVG Version: 6.00 Build 0)  -->
<svg version="1.1" id="Capa_1" xmlns="http://www.w3.org/2000/svg" xmlns:xlink="http://www.w3.org/1999/xlink" x="0px" y="0px"
	 viewBox="0 0 502.624 502.624" style="enable-background:new 0 0 502.624 502.624;" xml:space="preserve">
<g>
	<path style="fill:#333333;" d="M366.176,122.104l13.136-13.136L392,121.656l-21.632,21.632L381.68,154.6l24.944-24.944h42.184
		l48.44-125.928L371.312,52.16v42.184l-16.448,16.448L366.176,122.104z M387.312,63.144l82.072-31.56l-31.568,82.072h-31.192l-4-4
		l46.344-46.344L437.656,52l-46.344,46.344l-4-4V63.144z"/>
	<polygon style="fill:#333333;" points="384.96,347.992 373.648,359.304 480,465.656 467.312,478.344 368.96,379.992 
		357.648,391.304 467.312,500.968 502.624,465.656 	"/>
	<polygon style="fill:#333333;" points="35.312,478.344 22.624,465.656 128.976,359.304 117.664,347.992 0,465.656 35.312,500.968 
		144.976,391.304 133.664,379.992 	"/>
	<path style="fill:#333333;" d="M96,129.656l24.944,24.944l11.312-11.312l-21.632-21.632l12.688-12.688l13.136,13.136l11.312-11.312
		l-16.448-16.448V52.16L5.384,3.728l48.432,125.928H96z M115.312,63.144v31.192l-4,4L64.968,52L53.656,63.312L100,109.656l-4,4
		H64.808L33.24,31.584L115.312,63.144z"/>
</g>
<path style="fill:#FFA64D;" d="M251.312,497.656l-3.776-2.008C156.112,447,99.312,352.736,99.312,249.656
	s56.8-197.344,148.224-245.992l3.776-2.008l3.776,2.008c91.424,48.648,148.224,142.912,148.224,245.992S346.512,447,255.088,495.648
	L251.312,497.656z"/>
<g>
	<path style="fill:#333333;" d="M257.128,123.44l-5.816-6.168l-5.816,6.168c-32.368,34.296-50.184,79.12-50.184,126.216
		s17.816,91.92,50.184,126.216l5.816,6.168l5.816-6.168c32.368-34.296,50.184-79.12,50.184-126.216S289.496,157.736,257.128,123.44z
		 M251.312,358.4c-25.856-30.376-40-68.656-40-108.744s14.144-78.368,40-108.744c25.856,30.376,40,68.656,40,108.744
		S277.168,328.024,251.312,358.4z"/>
	<path style="fill:#333333;" d="M327.44,390.568c28.704-41.552,43.872-90.28,43.872-140.912
		c0-85.656-43.264-164.088-115.736-209.792l-4.264-2.688l-4.264,2.696C174.576,85.568,131.312,164,131.312,249.656
		s43.264,164.088,115.736,209.792l4.264,2.688l4.264-2.696c24.464-15.432,45.832-34.776,63.52-57.504l-12.624-9.832
		c-3.672,4.72-7.544,9.264-11.552,13.664l-1.512-32.544l31.384-8.608c-3.28,5.728-6.744,11.368-10.528,16.848L327.44,390.568z
		 M334.816,154.048c6.968,15.448,12.208,31.72,15.656,48.536l-27.208-17.896L334.816,154.048z M353.864,224.28
		c0.904,8.368,1.448,16.824,1.448,25.376c0,8.504-0.616,16.92-1.528,25.28l-20.232-25.28L353.864,224.28z M350.384,296.784
		c-3.432,16.616-8.68,32.752-15.672,48.224l-11.448-30.376L350.384,296.784z M324.912,134.712l-31.504-8.64l1.52-32.688
		C306.496,106.048,316.48,119.944,324.912,134.712z M251.312,56.152c10.384,6.864,20.016,14.528,29.008,22.768l-29.008,17.408
		L222.304,78.92C231.296,70.688,240.928,63.016,251.312,56.152z M207.704,93.392l1.52,32.688l-31.504,8.64
		C186.144,119.944,196.128,106.048,207.704,93.392z M167.808,345.264c-6.968-15.448-12.208-31.72-15.656-48.544l27.208,17.904
		L167.808,345.264z M148.76,275.032c-0.904-8.368-1.448-16.824-1.448-25.376s0.544-17.008,1.448-25.376l20.312,25.376
		L148.76,275.032z M152.152,202.584c3.448-16.824,8.688-33.088,15.656-48.536l11.552,30.64L152.152,202.584z M177.712,364.592
		l31.504,8.64l-1.52,32.688C196.128,393.264,186.144,379.368,177.712,364.592z M251.312,443.16
		c-10.384-6.864-20.016-14.528-29.008-22.768l29.008-17.408l29.048,17.432C271.32,428.72,261.632,436.328,251.312,443.16z
		 M278.664,400.736l-27.352-16.408l-27.352,16.408l1.832-39.552l-42.496-11.656l15.544-41.232l-36.816-24.224l27.528-34.416
		l-27.528-34.416l36.816-24.224l-15.544-41.232l42.496-11.656l-1.832-39.552l27.352,16.408l27.352-16.408l-1.832,39.552
		l42.496,11.656l-15.544,41.232L340.6,215.24l-27.528,34.416l27.528,34.416l-36.816,24.224l15.544,41.232l-42.496,11.656
		L278.664,400.736z"/>
	<path style="fill:#333333;" d="M251.312,217.656c-17.648,0-32,14.352-32,32s14.352,32,32,32c17.648,0,32-14.352,32-32
		S268.96,217.656,251.312,217.656z M251.312,265.656c-8.816,0-16-7.184-16-16c0-8.824,7.184-16,16-16s16,7.176,16,16
		C267.312,258.472,260.128,265.656,251.312,265.656z"/>
</g>
<g>
</g>
<g>
</g>
<g>
</g>
<g>
</g>
<g>
</g>
<g>
</g>
<g>
</g>
<g>
</g>
<g>
</g>
<g>
</g>
<g>
</g>
<g>
</g>
<g>
</g>
<g>
</g>
<g>
</g>
</svg>
