<?xml version="1.0" encoding="iso-8859-1"?>
<!-- Generator: Adobe Illustrator 19.0.0, SVG Export Plug-In . SVG Version: 6.00 Build 0)  -->
<svg xmlns="http://www.w3.org/2000/svg" xmlns:xlink="http://www.w3.org/1999/xlink" version="1.1" id="Layer_1" x="0px" y="0px" viewBox="0 0 511.971 511.971" style="enable-background:new 0 0 511.971 511.971;" xml:space="preserve" width="512" height="512">
<g>
	<g>
		<path style="fill:#AA563C;" d="M302.581,355.449c-0.564-12.457,18.722-14.607,15.021-13.955c-0.007,0.001-0.014,0.002-0.022,0.003    C247.861,216.601,93.784,149.142,93.78,149.141c-7.743,17.875-11.621,38.15-6.181,59.071    c16.866,64.87-46.707,32.435-46.707,46.706l14.271,29.84l-4.757,18.596l11.244,8.65l-6.919,12.109    c0,0,19.893,12.109,11.244,31.138c-8.649,19.029,8.217,35.462,26.164,28.543c17.947-6.919,80.223-22.488,100.116,44.112    c0,0,6.853,20.704-2.74,47.835l0.017-0.007c0,0-8.381,23.32,15.804,27.266h0.001c8.704,0.417,57.182,7.573,104.123-14.477    c1.254-0.742,17.169-10.599,9.72-28.485C292.196,403.854,302.581,355.449,302.581,355.449z"/>
		<path style="fill:#A04B33;" d="M89.342,216.105h1.032c-1.388-16.241,2.293-31.852,8.406-45.964c0,0,0.035,0.016,0.061,0.027    c-0.026-0.011-0.061-0.027-0.061-0.027l0,0c2.258-5.213,4.848-10.219,7.629-14.98c-3.573-1.783-9.006-4.423-12.629-6.02    C78.782,183.767,87.251,204.432,89.342,216.105z"/>
		<path style="fill:#F6B138;" d="M268.213,320.684c-0.013-0.019-5.796-8.578-9.551,3.895v0    c-1.935,15.289-12.103,26.952-24.362,26.952c-12.167,0-22.272-11.49-24.315-26.611l0,0v0c-0.199-1.472-0.322-2.977-0.362-4.51    c-1.74-8.951-9.237,0.276-9.237,0.276l0,0c-4.041,6.278-6.4,13.74-6.4,21.761c0,22.264,18.049,40.313,40.313,40.313    C266.475,382.759,285.209,347.089,268.213,320.684z"/>
		<g>
			<path style="fill:#EDA024;" d="M219.048,344.64c-4.673-4.801-7.987-11.756-9.063-19.72v0c-0.199-1.472-0.322-2.977-0.362-4.51     c-1.74-8.951-9.237,0.276-9.237,0.276c-4.041,6.278-6.4,13.74-6.4,21.761c0,27.478,26.854,46.789,52.813,38.328     C231.32,375.728,219.956,361.576,219.048,344.64z"/>
		</g>
		<path style="fill:#FC5959;" d="M136.556,90.712c-10.625,9.978-31.097,31.468-42.776,58.428l0,0c0,0,154.08,67.459,223.799,192.357    c16.712-2.054,43.682-8.816,68.609-30.178C313.474,186.312,173.243,109.294,136.556,90.712z"/>
		<path style="fill:#EF4343;" d="M106.409,155.161c13.846-23.701,29.83-38.704,47.832-55.086c-7.218-3.97-13.222-7.102-17.685-9.362    c-10.625,9.978-31.097,31.468-42.776,58.428l0,0C93.78,149.141,98.407,151.167,106.409,155.161z"/>
		<path style="fill:#6D5248;" d="M453.246,140.93C495.603,87.933,458.57,7.547,389.041,7.547c-18.431,0-33.367,5.156-46.806,14.649    c-14.616,7.623-31.487,4.441-31.487,4.441l0.002,0.008c-34.844-2.425-73.208,3.333-107.855,18.28    c50.075,27.432,161.677,96.938,227.003,201.937c-2.839,7.099-6.08,14.114-9.747,20.997c16.698-31.268,24.75-65.254,24.376-97.734    c0.898-20.753,8.73-29.178,8.73-29.178L453.246,140.93z"/>
		<path style="fill:#60433A;" d="M239.984,32.674L239.984,32.674c-12.608,3.015-25.074,7.068-37.089,12.252    c6.938,3.801,15.062,8.413,24.076,13.812c29.302-9.56,60.221-13.08,88.779-11.092l-0.002-0.008c0,0,16.871,3.182,31.487-4.441    c42.977-30.359,104.397-11.886,123.554,38.165c-6.318-62.659-78.288-94.672-128.554-59.165    c-14.616,7.623-31.487,4.441-31.487,4.441l0.002,0.008C288.395,25.09,263.953,26.941,239.984,32.674z"/>
		<g>
			<path style="fill:#E83D3D;" d="M429.898,246.863C364.572,141.863,252.969,72.357,202.895,44.925     c-29.499,12.726-45.823,26.521-66.339,45.787c36.688,18.582,176.918,95.599,249.633,220.606     c-4.732,4.056-9.538,7.582-14.334,10.653c0.002,0.004,0.005,0.007,0.007,0.01C399.695,304.165,417.569,277.692,429.898,246.863z"/>
		</g>
		<path style="fill:#BC3B3B;" d="M202.895,44.925c-29.499,12.726-45.823,26.521-66.339,45.787c4.462,2.26,10.467,5.392,17.685,9.362    c15.846-14.421,34.16-25.739,53.654-34.149c0.611,0.335,0.608,0.333,0,0c6.251-2.697,12.626-5.084,19.076-7.188    C218.672,53.767,210.711,49.211,202.895,44.925z"/>
		<g>
			<path style="fill:#A04B33;" d="M231.514,502.937L231.514,502.937c-24.186-4.109-15.805-28.392-15.805-28.392l-0.017,0.007     c9.592-28.25,2.74-49.809,2.74-49.809c-18.596-64.826-74.222-54.889-96.059-47.431c25.131-1.531,56.747,6.614,69.884,50.594     c0,0,6.853,20.704-2.74,47.835l0.017-0.007c0,0-8.381,23.32,15.804,27.266h0.001c5.76,0.474,18.861,2.346,39.433,1.126     C238.112,503.729,234.098,503.212,231.514,502.937z"/>
		</g>
	</g>
	<g>
		<path d="M262.506,310.35c-5.125,0.698-8.835,4.742-11.025,12.02c-0.12,0.398-0.207,0.807-0.259,1.22    c-1.472,11.626-8.747,20.394-16.922,20.394c-10.06,0-16.87-12.197-17.18-23.821c-0.113-4.34-2.998-9.619-8.169-10.913    c-6.729-1.683-12.303,4.097-14.386,6.661c-0.174,0.214-0.336,0.438-0.485,0.669c-20.319,31.569,2.36,73.634,40.22,73.634    c37.829,0,60.546-42.022,40.233-73.614C272.806,313.886,268.339,309.555,262.506,310.35z M234.3,375.212    c-22.816,0-38.705-22.857-30.769-44.198c9.21,37.187,52.346,37.228,61.541,0.009C273.015,352.41,257.074,375.212,234.3,375.212z"/>
		<path d="M471.479,86.612c-4.123-0.219-7.668,2.952-7.89,7.089c-0.833,15.584-6.436,30.279-16.201,42.499    c-6.975,8.649-10.498,24.254-10.359,33.965c0.232,20.174-2.854,40.391-9.047,59.916c-8.675-12.852-18.326-25.628-28.807-38.126    c-2.661-3.174-7.392-3.591-10.566-0.927c-3.174,2.661-3.589,7.392-0.928,10.566c12.615,15.043,23.978,30.484,33.813,45.947    c-10.053,23.859-21.601,40.062-33.607,51.953c-54.021-88.017-147.613-162.424-238.262-210.496    c14.792-14.549,32.885-26.603,52.975-35.717c37.841,21.008,106.632,63.926,165.376,126.185c2.845,3.014,7.591,3.151,10.603,0.308    c3.013-2.843,3.15-7.589,0.308-10.602c-55.002-58.293-118.471-99.937-158.466-123.032c28.025-9.788,58.887-14.172,89.53-12.078    c13.457,2.152,29.112-0.973,36.325-5.591c5.826-3.727,5.507-3.504,5.844-3.75c0.133-0.097,13.947-9.72,36.924-9.72    c32.465,0,61.007,20.74,71.023,51.609c1.279,3.94,5.516,6.096,9.448,4.819c3.94-1.278,6.098-5.509,4.819-9.449    C462.303,24.908,428.027,0,389.041,0c-26.719,0-43.274,10.863-45.531,12.437l-5.019,3.205c-12.242,6.231-26.336,3.478-27.572,3.45    c-62.248-4.233-129.025,16.579-172.57,59.937c-10.334,8.531-23.53,22.477-33.585,36.299    c-20.232,27.792-33.105,61.337-24.424,94.724c3.591,13.808,3.479,23.616-0.323,28.365c-4.44,5.548-15.309,5.183-24.042,4.888    c-8.346-0.28-14.945-0.503-19.337,3.742c-3.105,3.002-4.074,7.792-2.511,11.061l13.097,27.384l-4.082,15.958    c-0.743,2.905,0.315,5.975,2.692,7.803l6.061,4.662l-3.675,6.43c-1.998,3.497-0.84,7.972,2.576,10.105    c1.45,0.906,14.005,9.214,8.352,21.65c-5.202,11.447-3.523,23.766,4.383,32.149c7.919,8.398,19.912,10.887,31.308,6.495    c17.99-6.939,42.186-9.212,60.215-0.362c16.28,7.992,24.786,22.887,30.071,39.799c0.06,0.186,5.854,18.874-2.68,43.012    c-6.62,18.774,3.674,35.032,22.031,37.21c35.816,4.152,75.145,0.377,108.174-15.14c0.216-0.102,0.427-0.213,0.632-0.334    c8.515-5.04,20.798-18.678,12.824-37.823c-0.052-0.122-0.105-0.244-0.163-0.363c-25.454-52.991-16.123-99.318-16.029-99.767    c0.135-0.628,0.188-1.271,0.159-1.912c-0.164-3.637,6.423-5.889,10.061-6.382c85.363-11.544,132.742-97.389,131.895-178.478    c0.746-16.289,6.222-23.557,6.775-24.251c0.399-0.404,0.738-0.84,1.02-1.299c11.287-14.495,17.763-31.811,18.743-50.151    C478.788,90.366,475.614,86.833,471.479,86.612z M312.328,463.041c4.491,11.05-3.991,17.302-6.411,18.812    c-37.552,17.514-78.382,16.104-99.534,13.67c-9.197-1.553-12.849-6.567-9.631-17.798c15.407-44.275-4.594-85.84-35.089-100.808    c-30.423-14.935-65.497-2.761-72.221-0.169c-11.76,4.532-22.48-5.589-16.638-18.441c7.183-15.804-0.459-28.806-8.335-36.163    l3.694-6.465c1.859-3.254,1.031-7.381-1.938-9.666l-7.326-5.636c2.711-12.38,4.964-14.862,3.031-18.901l-11.142-23.297    c12.094,0.091,30.56,2.576,40.939-10.388c7.072-8.835,8.096-22.414,3.13-41.514c-4.232-16.279-2.184-32.297,3.022-46.988    c10.573,5.107,31.991,16.038,57.777,32.375c3.499,2.217,8.132,1.178,10.35-2.322c2.217-3.499,1.177-8.132-2.322-10.349    c-21.211-13.438-43.167-25.495-59.852-33.538c9.991-19.77,24.455-36.052,34.103-45.649    c77.214,40.155,159.133,102.11,212.794,172.159c1.043,1.362,2.072,2.727,3.094,4.093c0.196,0.261,0.396,0.522,0.591,0.783    c8.016,10.77,15.36,21.67,22.02,32.689c-16.203,12.499-35.111,20.509-54.866,23.767c-28.752-49.593-73.345-95.813-132.629-137.455    c-3.388-2.382-8.067-1.563-10.448,1.826s-1.563,8.067,1.827,10.448c56.133,39.429,98.565,82.905,126.278,129.331    c-5.952,3.205-11.494,8.716-11.529,17.289C293.702,361.991,286.36,408.832,312.328,463.041z"/>
	</g>
</g>















</svg>
