<?xml version="1.0" encoding="iso-8859-1"?>
<!-- Generator: Adobe Illustrator 19.0.0, SVG Export Plug-In . SVG Version: 6.00 Build 0)  -->
<svg version="1.1" id="Capa_1" xmlns="http://www.w3.org/2000/svg" xmlns:xlink="http://www.w3.org/1999/xlink" x="0px" y="0px"
	 viewBox="0 0 496 496" style="enable-background:new 0 0 496 496;" xml:space="preserve">
<g>
	<g>
		<g>
			<rect x="168" y="448" width="16" height="16"/>
			<rect x="224" y="448" width="16" height="16"/>
			<rect x="112" y="448" width="16" height="16"/>
			<path d="M480.776,327.4l-88.768-75.112c0.208-72.616,6.712-145.672,19.328-217.2L417.536,0H254.464l6.2,35.096
				c12.616,71.544,19.12,144.608,19.328,217.232L238.384,288H0v56c0,83.816,68.184,152,152,152h48c11.408,0,22.48-1.368,33.176-3.76
				l1.88,3.76h202.04l18.672-40H456v-0.512l35.968-77.072c2.672-5.728,4.032-11.856,4.032-18.184
				C496,347.552,490.456,335.592,480.776,327.4z M279.008,48c-0.856-5.232-1.672-10.472-2.592-15.688L273.536,16h124.928
				l-2.872,16.312c-0.928,5.216-1.744,10.456-2.6,15.688H279.008z M300.152,160h-7.824c-0.8-10.68-1.736-21.344-2.8-32h36.224
				L300.152,160z M336,140.808L351.352,160h-30.704L336,140.808z M378.536,176c-0.992,16-1.696,32-2.096,48h-80.88
				c-0.4-16-1.104-32-2.104-48H378.536z M371.848,160l-25.608-32h36.224c-1.056,10.656-1.992,21.32-2.792,32H371.848z M287.872,112
				c-1.808-16.048-3.912-32.056-6.312-48h108.88c-2.4,15.944-4.504,31.952-6.312,48H287.872z M16,304h320v16H16V304z
				 M279.136,397.552L272,404.688L243.312,376L272,347.312L300.688,376l-12.864,12.864l11.312,11.312l4.864-4.864l14.768,14.768
				c-1.128,2.024-2.376,3.968-3.6,5.92h-31.856l7.136-7.136L279.136,397.552z M80,347.312L108.688,376L80,404.688L51.312,376
				L80,347.312z M48,356.688L27.312,336h41.376L48,356.688z M91.312,336h41.376L112,356.688L91.312,336z M112,395.312L132.688,416
				H91.312L112,395.312z M115.312,376L144,347.312L172.688,376L144,404.688L115.312,376z M155.312,336h41.376L176,356.688
				L155.312,336z M176,395.312L196.688,416h-41.376L176,395.312z M179.312,376L208,347.312L236.688,376L208,404.688L179.312,376z
				 M219.312,336h41.376L240,356.688L219.312,336z M240,395.312L260.688,416h-41.376L240,395.312z M283.312,336h41.376L304,356.688
				L283.312,336z M328,425.648V440h-10.28C321.44,435.448,324.816,430.616,328,425.648z M326.08,394.76L307.312,376l28.512-28.512
				C335.4,364.16,332.008,380.088,326.08,394.76z M16.176,347.488L44.688,376l-18.76,18.76C20,380.088,16.608,364.16,16.176,347.488
				z M36.832,416c-1.224-1.952-2.472-3.896-3.6-5.92L48,395.312L68.688,416H36.832z M200,480h-48c-41.44,0-78.544-18.68-103.504-48
				h255.008c-2.336,2.744-4.728,5.448-7.272,8H296v0.232C271.384,464.792,237.44,480,200,480z M426.904,480H267.472
				c12.776-6.368,24.496-14.456,34.928-24h135.704L426.904,480z M344,440v-24h16v24H344z M376,440v-24h16v24H376z M408,440v-24h16
				v24H408z M445.576,440H440v-24h16.776L445.576,440z M477.472,371.656L464.24,400H341.176C348.088,382.648,352,363.784,352,344
				v-56h-89.04L296,259.68V256c0-5.328-0.112-10.664-0.176-16h80.352c-0.064,5.336-0.176,10.672-0.176,16v3.712l94.448,79.912
				c6.064,5.136,9.552,12.648,9.552,20.608C480,364.208,479.152,368.056,477.472,371.656z"/>
			<rect x="312" y="192" width="16" height="16"/>
			<rect x="344" y="192" width="16" height="16"/>
			<rect x="304" y="80" width="16" height="16"/>
			<rect x="352" y="80" width="16" height="16"/>
		</g>
	</g>
</g>
<g>
</g>
<g>
</g>
<g>
</g>
<g>
</g>
<g>
</g>
<g>
</g>
<g>
</g>
<g>
</g>
<g>
</g>
<g>
</g>
<g>
</g>
<g>
</g>
<g>
</g>
<g>
</g>
<g>
</g>
</svg>
