<?xml version="1.0" encoding="iso-8859-1"?>
<!-- Generator: Adobe Illustrator 19.0.0, SVG Export Plug-In . SVG Version: 6.00 Build 0)  -->
<svg version="1.1" id="Capa_1" xmlns="http://www.w3.org/2000/svg" xmlns:xlink="http://www.w3.org/1999/xlink" x="0px" y="0px"
	 viewBox="0 0 502.624 502.624" style="enable-background:new 0 0 502.624 502.624;" xml:space="preserve">
<g>
	<g>
		<g>
			<path d="M257.128,123.976l-5.816-6.168l-5.824,6.168c-32.36,34.296-50.176,79.12-50.176,126.216s17.816,91.92,50.176,126.216
				l5.824,6.168l5.816-6.168c32.36-34.296,50.184-79.12,50.184-126.216S289.488,158.272,257.128,123.976z M251.312,358.936
				c-25.856-30.376-40-68.656-40-108.744c0-40.088,14.144-78.368,40-108.744c25.856,30.376,40,68.656,40,108.744
				C291.312,290.28,277.168,328.56,251.312,358.936z"/>
			<path d="M327.44,391.104c28.696-41.552,43.872-90.28,43.872-140.912c0-85.656-43.264-164.088-115.736-209.792l-4.264-2.696
				l-4.264,2.696c-72.472,45.704-115.736,124.136-115.736,209.792s43.264,164.088,115.736,209.792l4.264,2.696l4.264-2.696
				c24.464-15.432,45.832-34.776,63.512-57.504l-12.624-9.832c-3.672,4.72-7.544,9.264-11.552,13.664l-1.512-32.544l31.384-8.608
				c-3.28,5.728-6.744,11.368-10.528,16.848L327.44,391.104z M355.312,250.192c0,8.504-0.616,16.92-1.528,25.28l-20.232-25.28
				l20.312-25.376C354.768,233.184,355.312,241.64,355.312,250.192z M350.472,203.12l-27.208-17.896l11.552-30.64
				C341.784,170.032,347.024,186.304,350.472,203.12z M294.928,93.92c11.568,12.664,21.552,26.56,29.984,41.328l-31.504-8.64
				L294.928,93.92z M251.312,56.688c10.384,6.864,20.016,14.528,29.008,22.768l-29.008,17.408l-29.008-17.408
				C231.296,71.224,240.928,63.552,251.312,56.688z M207.704,93.928l1.52,32.688l-31.504,8.64
				C186.144,120.48,196.128,106.584,207.704,93.928z M167.808,154.584l11.552,30.64l-27.208,17.896
				C155.6,186.296,160.84,170.032,167.808,154.584z M147.312,250.192c0-8.552,0.544-17.008,1.448-25.376l20.312,25.376
				l-20.312,25.376C147.856,267.2,147.312,258.744,147.312,250.192z M152.152,297.264l27.208,17.904L167.808,345.8
				C160.84,330.352,155.6,314.08,152.152,297.264z M207.696,406.464c-11.568-12.664-21.552-26.56-29.984-41.328l31.504,8.64
				L207.696,406.464z M251.312,443.696c-10.384-6.864-20.016-14.528-29.008-22.768l29.008-17.408l29.048,17.432
				C271.32,429.256,261.632,436.864,251.312,443.696z M276.824,361.72l1.84,39.552l-27.352-16.408l-27.352,16.408l1.832-39.552
				l-42.496-11.656l15.544-41.232l-36.816-24.224l27.528-34.416l-27.528-34.416l36.816-24.224l-15.544-41.232l42.496-11.656
				l-1.832-39.552l27.352,16.408l27.352-16.408l-1.832,39.552l42.504,11.656l-15.544,41.232l36.816,24.224l-27.536,34.416
				l27.528,34.416l-36.816,24.224l15.544,41.232L276.824,361.72z M323.264,315.168l27.12-17.848
				c-3.424,16.616-8.68,32.752-15.672,48.224L323.264,315.168z"/>
			<path d="M251.312,218.192c-17.648,0-32,14.352-32,32s14.352,32,32,32s32-14.352,32-32S268.96,218.192,251.312,218.192z
				 M251.312,266.192c-8.824,0-16-7.176-16-16c0-8.824,7.176-16,16-16c8.816,0,16,7.176,16,16
				C267.312,259.016,260.128,266.192,251.312,266.192z"/>
			<path d="M385.272,348.84c11.672-31.032,18.04-64.328,18.04-98.648s-6.368-67.616-18.04-98.648l21.352-21.352H448.8L497.24,4.264
				L371.312,52.696v42.176l-9.184,9.184C336.552,62.28,300.032,27.152,255.088,3.128l-3.776-2.008l-3.776,2.016
				c-44.952,24.024-81.464,59.152-107.04,100.928l-9.184-9.184V52.696L5.384,4.264l48.432,125.928h42.176l21.352,21.352
				c-11.664,31.032-18.032,64.328-18.032,98.648s6.368,67.616,18.04,98.648L0,466.192l35.312,35.312L140.496,396.32
				c25.576,41.776,62.088,76.904,107.04,100.928l3.776,2.016l3.776-2.016c44.952-24.024,81.464-59.152,107.04-100.928
				l105.184,105.184l35.312-35.312L385.272,348.84z M387.312,63.68l82.072-31.56l-31.568,82.072h-31.192l-4-4l46.344-46.344
				l-11.312-11.312L391.312,98.88l-4-4V63.68z M379.312,109.504L392,122.192l-13.32,13.32c-2.592-5.776-5.384-11.448-8.352-17.024
				L379.312,109.504z M96,114.192H64.8L33.24,32.12l82.072,31.56v31.192l-4,4L64.968,52.536L53.656,63.848L100,110.192L96,114.192z
				 M110.624,122.192l12.688-12.688l8.984,8.984c-2.976,5.576-5.76,11.248-8.352,17.024L110.624,122.192z M35.312,478.88
				l-12.688-12.688l101.32-101.32c2.592,5.776,5.384,11.448,8.352,17.024L35.312,478.88z M251.312,481.08
				c-84-46.64-136-134.712-136-230.888s52-184.248,136-230.888c84,46.64,136,134.712,136,230.888S335.312,434.44,251.312,481.08z
				 M370.328,381.896c2.976-5.576,5.76-11.248,8.352-17.024L480,466.192l-12.688,12.688L370.328,381.896z"/>
		</g>
	</g>
</g>
<g>
</g>
<g>
</g>
<g>
</g>
<g>
</g>
<g>
</g>
<g>
</g>
<g>
</g>
<g>
</g>
<g>
</g>
<g>
</g>
<g>
</g>
<g>
</g>
<g>
</g>
<g>
</g>
<g>
</g>
</svg>
