<?xml version="1.0" encoding="iso-8859-1"?>
<!-- Generator: Adobe Illustrator 19.0.0, SVG Export Plug-In . SVG Version: 6.00 Build 0)  -->
<svg xmlns="http://www.w3.org/2000/svg" xmlns:xlink="http://www.w3.org/1999/xlink" version="1.1" id="Layer_1" x="0px" y="0px" viewBox="0 0 511.976 511.976" style="enable-background:new 0 0 511.976 511.976;" xml:space="preserve" width="512" height="512">
<g>
	<g>
		<path style="fill:#F2D59F;" d="M89.468,481.339c104.148,8.98,228.502,8.983,332.845-0.065c6.19-0.808,24.011-5.155,24.011-28.457    V276.726c-116.48,12.054-264.025,12.089-380.664,0.097v175.993C65.659,452.817,66.34,479.39,89.468,481.339z"/>
		<path style="fill:#F2D59F;" d="M89.468,481.339c104.148,8.98,228.502,8.983,332.845-0.065c6.19-0.808,24.011-5.155,24.011-28.457    V276.726c-116.48,12.054-264.025,12.089-380.664,0.097v175.993C65.659,452.817,66.34,479.39,89.468,481.339z"/>
		<path style="fill:#EDBF77;" d="M91.834,456.817V279.271c-8.941-0.757-17.674-1.574-26.175-2.448v175.993    c0,0,0.681,26.573,23.809,28.522c5.467,0.471,11.027,0.916,16.649,1.342C92.321,475.5,91.834,456.817,91.834,456.817z"/>
		<path style="fill:#F2902F;" d="M65.659,276.823v35.516c55.306,5.686,120.316,8.964,189.883,8.964    c69.949,0,135.279-3.317,190.781-9.061v-35.516C329.843,288.781,182.298,288.815,65.659,276.823z"/>
		<path style="fill:#E57B1C;" d="M91.834,279.271c-8.343-0.706-17.744-1.581-26.175-2.448v35.516    c8.502,0.874,17.234,1.69,26.175,2.448V279.271z"/>
		<path style="fill:#6D5248;" d="M255.991,358.973L255.991,358.973c-32.237,0-58.612,26.375-58.612,58.612v69.695    c38.962,1.053,78.257,1.045,117.224-0.026v-69.67C314.603,385.348,288.227,358.973,255.991,358.973z"/>
		<path style="fill:#60433A;" d="M222.379,417.585c0-27.949,19.83-51.478,46.112-57.247c-36.652-8.044-71.112,20.227-71.112,57.247    v69.695c8.24,0.223,16.587,0.391,25,0.52V417.585z"/>
		<path style="fill:#6D5248;" d="M504.254,251.516c-22.186-100.892-121.969-168.44-228.31-185.569h-40.803    C120.564,84.403,30.486,155.96,7.971,246.636c0.085,0.11-5.456,22.391,19.981,25.738c0.21,0.026,0.44,0.058,0.685,0.093    c134.025,17.942,324.919,17.778,457.915-0.56C492.9,270.725,506.357,266.431,504.254,251.516z"/>
		<g>
			<path style="fill:#60433A;" d="M106.435,277.206c15.413-106.016,77.077-189.68,155.512-211.258h-26.806     C120.564,84.403,30.486,155.96,7.971,246.636c0.085,0.11-5.456,22.391,19.981,25.738c0.21,0.026,0.44,0.058,0.685,0.093     c23.632,3.164,49.656,5.843,77.536,7.952C106.266,278.445,106.435,277.206,106.435,277.206z"/>
		</g>
		<path style="fill:#F2D59F;" d="M255.99,23.909c-11.514,0-20.849,9.334-20.849,20.849v21.189h41.698V44.758    C276.839,33.243,267.505,23.909,255.99,23.909z"/>
		<path style="fill:#EDBF77;" d="M266.068,26.51c-2.988-1.654-6.421-2.601-10.077-2.601c-11.514,0-20.849,9.334-20.849,20.849    v21.189h20.155V44.758C255.296,36.9,259.647,30.064,266.068,26.51z"/>
	</g>
	<path d="M511.686,250.471c-0.157-1.121-1.814-7.761-1.842-7.865c-12.554-48.127-43.223-91.376-88.689-125.072   c-3.329-2.467-8.026-1.769-10.491,1.56c-2.467,3.328-1.769,8.025,1.56,10.491c42.041,31.157,73.572,73.202,84.648,123.258   c0.348,2.591,0.828,9.3-11.523,11.663c-123.316,16.977-307.265,19.601-456.398,0.436c-4.437-0.6-9.131-1.881-11.739-5.549   c-3.131-4.403-2.038-10.495-1.927-11.063C39.276,151.986,136.37,89.631,235.75,73.449h39.597   c41.023,6.678,78.875,20.132,112.515,39.994c3.566,2.107,8.166,0.924,10.271-2.645c2.106-3.567,0.922-8.166-2.645-10.271   c-33.439-19.744-70.799-33.429-111.144-40.742V44.76c0-15.632-12.717-28.349-28.349-28.349s-28.35,12.717-28.35,28.349v14.863   C124.386,78.105,25.685,144.193,0.675,244.924c-0.305,1.301-2.78,12.993,4.179,22.974c8.274,11.867,20.331,12.115,53.311,15.686   v28.758v140.477c0,0.064,0.001,0.128,0.002,0.192c0.296,11.515,7.087,33.816,30.663,35.803   c94.549,8.152,200.873,8.604,291.519,3.064c4.134-0.253,7.281-3.81,7.028-7.944c-0.253-4.133-3.771-7.273-7.944-7.028   c-18.711,1.144-37.867,2.012-57.323,2.621v-61.94c0-36.454-29.658-66.112-66.112-66.112s-66.112,29.658-66.112,66.112v61.988   c-34.583-1.059-67.966-2.965-99.78-5.708c-15.627-1.316-16.848-18.879-16.939-21.176V320.625   c11.072,1.071,22.524,2.052,34.168,2.92c4.11,0.294,7.729-2.791,8.037-6.922c0.308-4.131-2.791-7.729-6.922-8.037   c-12.04-0.897-23.877-1.914-35.283-3.029v-20.433c111.029,10.793,251.643,11.006,365.664-0.104v20.444   c-94.58,9.316-205.258,10.551-300.509,5.09c-4.159-0.251-7.68,2.923-7.917,7.058c-0.237,4.136,2.923,7.681,7.058,7.917   c37.929,2.175,77.659,3.277,118.088,3.277c64.561,0,127.706-2.861,183.28-8.278v132.29c0,15.388-9.386,19.922-17.329,21.001   c-4.019,0.348-8.096,0.679-12.198,1.002c-4.129,0.325-7.213,3.936-6.888,8.065c0.324,4.129,3.935,7.213,8.065,6.888   c1.951-0.153,12.12-0.968,12.811-1.062c14.764-1.928,30.539-12.37,30.539-35.895c0-34.401,0-133.252,0-169.35   c11.673-1.263,22.953-2.639,33.754-4.128c0.117-0.017,0.234-0.035,0.351-0.057C504.65,276.166,513.752,265.126,511.686,250.471z    M242.646,44.76c0-7.36,5.988-13.349,13.35-13.349c7.36,0,13.349,5.988,13.349,13.349v13.689h-26.698V44.76z M204.884,479.97   v-62.383c0-28.184,22.929-51.112,51.112-51.112s51.112,22.929,51.112,51.112v62.353   C272.971,480.759,238.931,480.771,204.884,479.97z"/>
</g>















</svg>
