<?xml version="1.0" encoding="iso-8859-1"?>
<!-- Generator: Adobe Illustrator 19.0.0, SVG Export Plug-In . SVG Version: 6.00 Build 0)  -->
<svg version="1.1" id="Capa_1" xmlns="http://www.w3.org/2000/svg" xmlns:xlink="http://www.w3.org/1999/xlink" x="0px" y="0px"
	 viewBox="0 0 511.999 511.999" style="enable-background:new 0 0 511.999 511.999;" xml:space="preserve">
<g>
	<g>
		<path d="M511.71,250.482c-0.157-1.121-1.814-7.761-1.842-7.865c-12.555-48.129-43.225-91.38-88.693-125.078
			c-3.329-2.467-8.026-1.769-10.492,1.56c-2.467,3.328-1.769,8.025,1.56,10.492c42.043,31.158,73.575,73.205,84.652,123.264
			c0.348,2.591,0.828,9.3-11.523,11.664c-123.322,16.978-307.279,19.602-456.419,0.436c-4.437-0.6-9.131-1.881-11.74-5.549
			c-3.131-4.403-2.038-10.495-1.927-11.064C39.278,151.992,136.376,89.634,235.761,73.452h39.599
			c41.025,6.678,78.879,20.133,112.52,39.996c3.566,2.107,8.166,0.924,10.271-2.645c2.106-3.567,0.922-8.166-2.645-10.271
			C362.066,80.786,324.704,67.1,284.357,59.787V44.761c0-15.633-12.718-28.35-28.35-28.35c-15.633,0-28.351,12.718-28.351,28.35
			v14.864C124.392,78.108,25.686,144.199,0.675,244.935c-0.305,1.301-2.78,12.994,4.179,22.975
			c8.274,11.868,20.332,12.116,53.313,15.687v28.759V452.84c0,0.064,0.001,0.128,0.002,0.192
			c0.296,11.516,7.087,33.818,30.664,35.805c94.553,8.152,200.882,8.604,291.533,3.064c4.134-0.253,7.281-3.81,7.028-7.944
			c-0.253-4.133-3.771-7.273-7.944-7.028c-18.712,1.144-37.869,2.012-57.326,2.621v-61.943c0-36.456-29.659-66.115-66.115-66.115
			s-66.115,29.659-66.115,66.115v61.991c-34.585-1.059-67.969-2.965-99.785-5.708c-15.628-1.316-16.849-18.88-16.94-21.177V320.639
			c11.073,1.071,22.525,2.052,34.17,2.92c4.11,0.294,7.729-2.791,8.037-6.922c0.308-4.131-2.791-7.729-6.922-8.037
			c-12.041-0.897-23.878-1.914-35.285-3.029v-20.434c111.034,10.794,251.655,11.007,365.681-0.104v20.445
			c-94.584,9.316-205.268,10.552-300.523,5.09c-4.159-0.251-7.68,2.923-7.917,7.058c-0.237,4.136,2.923,7.681,7.058,7.917
			c37.931,2.175,77.663,3.277,118.094,3.277c64.564,0,127.712-2.861,183.289-8.278v132.296c0,15.389-9.386,19.923-17.33,21.002
			c-4.019,0.348-8.096,0.679-12.199,1.002c-4.129,0.325-7.213,3.936-6.888,8.065c0.324,4.129,3.935,7.213,8.065,6.888
			c1.951-0.153,12.121-0.968,12.812-1.062c14.765-1.928,30.54-12.371,30.54-35.897c0-34.403,0-133.258,0-169.358
			c11.674-1.263,22.954-2.639,33.756-4.128c0.117-0.017,0.234-0.035,0.351-0.057C504.673,276.178,513.776,265.138,511.71,250.482z
			 M256.008,31.412c7.36,0,13.35,5.988,13.35,13.35v13.69h-26.699v-13.69h-0.001C242.657,37.401,248.645,31.412,256.008,31.412z
			 M204.893,417.606c0-28.185,22.93-51.114,51.114-51.114s51.114,22.93,51.114,51.114v62.356
			c-34.139,0.819-68.18,0.831-102.229,0.03V417.606z"/>
	</g>
</g>
<g>
</g>
<g>
</g>
<g>
</g>
<g>
</g>
<g>
</g>
<g>
</g>
<g>
</g>
<g>
</g>
<g>
</g>
<g>
</g>
<g>
</g>
<g>
</g>
<g>
</g>
<g>
</g>
<g>
</g>
</svg>
