
<svg xmlns="http://www.w3.org/2000/svg" xml:space="preserve" version="1.1" style="shape-rendering:geometricPrecision; text-rendering:geometricPrecision; image-rendering:optimizeQuality; fill-rule:evenodd; clip-rule:evenodd"
viewBox="0 0 26.0 26.0"
 xmlns:xlink="http://www.w3.org/1999/xlink">
 <defs>
  <style type="text/css">
   <![CDATA[
    .color-fixo {fill:#000000}
    .color-varia {fill:#698F3F}
   ]]>
  </style>
 </defs>
  <g id="icon-casa">
   <path class="color-varia " d="M13.0242 18.6155l0 0c-1.5994,0 -2.9079,1.3982 -2.9079,3.1071l0 3.6945c1.933,0.0558 3.8825,0.0554 5.8157,-0.0014l0 -3.6932c0,-1.7088 -1.3086,-3.107 -2.9078,-3.107z"/>
   <path class="color-varia " d="M25.3409 12.9192c-1.1007,-5.3483 -6.0511,-8.929 -11.3269,-9.837l-2.0242 0c-5.6844,0.9783 -10.1533,4.7716 -11.2703,9.5783 0.0042,0.0059 -0.2707,1.187 0.9913,1.3644 0.0104,0.0014 0.0218,0.0031 0.0339,0.0049 6.6492,0.9512 16.1198,0.9425 22.718,-0.0296 0.3149,-0.0627 0.9826,-0.2903 0.8782,-1.081z"/>
   <path class="color-fixo" d="M25.7096 12.8638c-0.0078,-0.0594 -0.09,-0.4114 -0.0914,-0.4169 -0.6228,-2.5512 -2.1443,-4.8438 -4.4,-6.6301 -0.1651,-0.1307 -0.3981,-0.0937 -0.5204,0.0827 -0.1224,0.1765 -0.0878,0.4254 0.0774,0.5562 2.0857,1.6516 3.65,3.8804 4.1995,6.5339 0.0173,0.1373 0.0411,0.493 -0.5717,0.6182 -6.1179,0.9 -15.2439,1.0391 -22.6427,0.0232 -0.2201,-0.0318 -0.453,-0.0997 -0.5824,-0.2942 -0.1553,-0.2334 -0.1011,-0.5563 -0.0956,-0.5864 1.1902,-5.1073 6.0073,-8.4127 10.9377,-9.2705l1.9644 0c2.0353,0.354 3.9132,1.0672 5.5821,2.1201 0.1769,0.1117 0.4051,0.0489 0.5096,-0.1403 0.1045,-0.189 0.0457,-0.4328 -0.1313,-0.5444 -1.6589,-1.0467 -3.5124,-1.7721 -5.514,-2.1598l0 -0.7964c0,-0.8287 -0.6309,-1.5028 -1.4064,-1.5028 -0.7756,0 -1.4065,0.6741 -1.4065,1.5028l0 0.7879c-5.1229,0.9797 -10.0196,4.483 -11.2604,9.8228 -0.0151,0.0689 -0.1379,0.6887 0.2073,1.2178 0.4105,0.6291 1.0087,0.6423 2.6449,0.8315l0 1.5245 0 7.4467c0,0.0034 0,0.0068 0.0001,0.0102 0.0146,0.6104 0.3516,1.7926 1.5212,1.8979 4.6908,0.4321 9.9657,0.4561 14.4628,0.1624 0.2051,-0.0134 0.3612,-0.202 0.3486,-0.4211 -0.0125,-0.2191 -0.187,-0.3855 -0.3941,-0.3726 -0.9283,0.0607 -1.8786,0.1067 -2.8438,0.139l0 -3.2835c0,-1.9324 -1.4714,-3.5046 -3.28,-3.5046 -1.8085,0 -3.2799,1.5722 -3.2799,3.5046l0 3.286c-1.7157,-0.0561 -3.3719,-0.1571 -4.9503,-0.3026 -0.7753,-0.0697 -0.8358,-1.0007 -0.8404,-1.1225l0 -7.0008c0.5493,0.0568 1.1175,0.1088 1.6952,0.1548 0.2039,0.0156 0.3834,-0.148 0.3987,-0.3669 0.0153,-0.219 -0.1385,-0.4098 -0.3434,-0.4261 -0.5973,-0.0475 -1.1846,-0.1014 -1.7504,-0.1606l0 -1.0831c5.5083,0.5721 12.4844,0.5834 18.1412,-0.0055l0 1.0837c-4.6923,0.4939 -10.1832,0.5593 -14.9088,0.2698 -0.2063,-0.0133 -0.381,0.155 -0.3928,0.3742 -0.0117,0.2192 0.145,0.4072 0.3502,0.4197 1.8817,0.1153 3.8528,0.1737 5.8585,0.1737 3.203,0 6.3358,-0.1517 9.0929,-0.4388l0 7.0127c0,0.8157 -0.4657,1.056 -0.8598,1.1132 -0.1993,0.0185 -0.4016,0.036 -0.6051,0.0532 -0.2049,0.0172 -0.3579,0.2086 -0.3417,0.4275 0.016,0.2189 0.1952,0.3823 0.4001,0.3651 0.0968,-0.0081 0.6013,-0.0513 0.6356,-0.0563 0.7324,-0.1022 1.5151,-0.6557 1.5151,-1.9028 0,-1.8236 0,-7.0637 0,-8.9773 0.5791,-0.0669 1.1387,-0.1399 1.6746,-0.2188 0.0058,-0.0009 0.0116,-0.0018 0.0174,-0.003 0.8292,-0.1652 1.2807,-0.7504 1.1782,-1.5273zm-13.3475 -10.9047c0,-0.3902 0.2971,-0.7077 0.6623,-0.7077 0.3652,0 0.6623,0.3175 0.6623,0.7077l0 0.7256 -1.3246 0 0 -0.7256 0 0zm-1.8734 23.0705l0 -3.3069c0,-1.4941 1.1375,-2.7095 2.5357,-2.7095 1.3982,0 2.5358,1.2155 2.5358,2.7095l0 3.3053c-1.6936,0.0434 -3.3824,0.0441 -5.0715,0.0016z"/>
  </g>
</svg>
