
<svg xmlns="http://www.w3.org/2000/svg" xml:space="preserve" version="1.1" style="shape-rendering:geometricPrecision; text-rendering:geometricPrecision; image-rendering:optimizeQuality; fill-rule:evenodd; clip-rule:evenodd"
viewBox="0 0 26.2466 26.2466"
 xmlns:xlink="http://www.w3.org/1999/xlink">
 <defs>
  <style type="text/css">
   <![CDATA[
    .color-fixo {fill:#000000}
    .color-varia {fill:#698F3F}
   ]]>
  </style>
 </defs>
  <g id="icon-negra">
   <path class="color-varia" d="M6.3761 5.0405c-0.6062,0.495 -1.7742,1.5612 -2.4405,2.8987l0 0c0,0 8.7909,3.3468 12.7687,9.5433 0.9535,-0.102 2.4922,-0.4374 3.9144,-1.4972 -4.1486,-6.2019 -12.1494,-10.0229 -14.2426,-10.9448z"/>
   <path class="color-varia" d="M23.1126 12.7875c-3.7272,-5.2093 -10.0946,-8.6576 -12.9515,-10.0186 -1.6831,0.6314 -2.6144,1.3158 -3.785,2.2716 2.0932,0.9219 10.094,4.7428 14.2427,10.9447 -0.27,0.2012 -0.5442,0.3762 -0.8178,0.5285 0.0001,0.0002 0.0002,0.0004 0.0004,0.0005 1.588,-0.8839 2.6078,-2.1972 3.3112,-3.7267z"/>
   <path class="color-fixo" d="M13.5621 15.9372c-0.2924,0.0346 -0.504,0.2353 -0.629,0.5963 -0.0069,0.0198 -0.0118,0.0401 -0.0148,0.0606 -0.084,0.5767 -0.499,1.0117 -0.9654,1.0117 -0.574,0 -0.9625,-0.6051 -0.9802,-1.1818 -0.0065,-0.2153 -0.1711,-0.4772 -0.4661,-0.5414 -0.3839,-0.0835 -0.702,0.2033 -0.8208,0.3305 -0.0099,0.0106 -0.0192,0.0217 -0.0276,0.0332 -1.1593,1.5662 0.1346,3.6531 2.2947,3.6531 2.1583,0 3.4544,-2.0848 2.2954,-3.6521 -0.0985,-0.1347 -0.3534,-0.3496 -0.6862,-0.3101zm-1.6092 3.2179c-1.3018,0 -2.2083,-1.134 -1.7555,-2.1927 0.5254,1.8449 2.9865,1.8469 3.5111,0.0004 0.4532,1.0611 -0.4563,2.1923 -1.7556,2.1923z"/>
   <path class="color-fixo" d="M25.485 4.8371c-0.2353,-0.0109 -0.4375,0.1464 -0.4502,0.3517 -0.0475,0.7731 -0.3672,1.5022 -0.9244,2.1085 -0.3979,0.429 -0.5989,1.2033 -0.591,1.685 0.0133,1.0009 -0.1628,2.0039 -0.5162,2.9726 -0.4949,-0.6376 -1.0455,-1.2715 -1.6435,-1.8915 -0.1518,-0.1575 -0.4218,-0.1782 -0.6028,-0.046 -0.1811,0.132 -0.2048,0.3667 -0.053,0.5242 0.7198,0.7463 1.3681,1.5123 1.9292,2.2795 -0.5736,1.1837 -1.2324,1.9876 -1.9174,2.5775 -3.0822,-4.3667 -8.422,-8.0582 -13.5939,-10.4431 0.8439,-0.7218 1.8762,-1.3199 3.0224,-1.772 2.159,1.0422 6.0838,3.1715 9.4355,6.2602 0.1623,0.1496 0.4331,0.1564 0.6049,0.0153 0.1719,-0.141 0.1797,-0.3765 0.0176,-0.526 -3.1381,-2.892 -6.7593,-4.9581 -9.0412,-6.1038 1.599,-0.4856 3.3598,-0.7031 5.1081,-0.5993 0.7678,0.1068 1.661,-0.0482 2.0725,-0.2773 0.3324,-0.185 0.3142,-0.1739 0.3334,-0.1861 0.0076,-0.0048 0.7957,-0.4822 2.1067,-0.4822 1.8522,0 3.4807,1.029 4.0521,2.5604 0.073,0.1955 0.3148,0.3025 0.5391,0.2391 0.2248,-0.0634 0.3479,-0.2733 0.2749,-0.4688 -0.6864,-1.8392 -2.642,-3.0749 -4.8663,-3.0749 -1.5244,0 -2.4689,0.5389 -2.5977,0.617l-0.2864 0.159c-0.6984,0.3091 -1.5026,0.1726 -1.5731,0.1712 -3.5515,-0.21 -7.3614,0.8225 -9.8458,2.9736 -0.5896,0.4232 -1.3425,1.1151 -1.9162,1.8009 -1.1543,1.3788 -1.8888,3.043 -1.3935,4.6994 0.2049,0.685 0.1985,1.1716 -0.0184,1.4072 -0.2533,0.2753 -0.8735,0.2572 -1.3717,0.2426 -0.4762,-0.0139 -0.8527,-0.025 -1.1033,0.1856 -0.1771,0.1489 -0.2324,0.3866 -0.1432,0.5488l0.7472 1.3585 -0.2329 0.7918c-0.0424,0.1441 0.0179,0.2964 0.1536,0.3871l0.3458 0.2313 -0.2097 0.319c-0.114,0.1735 -0.0479,0.3955 0.147,0.5013 0.0827,0.045 0.799,0.4572 0.4765,1.0741 -0.2968,0.568 -0.201,1.1791 0.25,1.595 0.4519,0.4167 1.1361,0.5402 1.7863,0.3223 1.0264,-0.3443 2.4069,-0.4571 3.4355,-0.018 0.9289,0.3965 1.4142,1.1355 1.7157,1.9745 0.0034,0.0092 0.334,0.9364 -0.1529,2.1339 -0.3777,0.9314 0.2096,1.738 1.257,1.8461 2.0434,0.206 4.2873,0.0187 6.1718,-0.7511 0.0123,-0.0051 0.0243,-0.0106 0.036,-0.0166 0.4859,-0.2501 1.1866,-0.9267 0.7317,-1.8765 -0.003,-0.0061 -0.006,-0.0121 -0.0093,-0.018 -1.4523,-2.629 -0.9199,-4.9274 -0.9145,-4.9496 0.0077,-0.0312 0.0107,-0.0631 0.0091,-0.0949 -0.0094,-0.1804 0.3664,-0.2922 0.574,-0.3166 4.8703,-0.5728 7.5735,-4.8317 7.5252,-8.8547 0.0425,-0.8081 0.355,-1.1687 0.3865,-1.2031 0.0228,-0.0201 0.0421,-0.0417 0.0582,-0.0645 0.644,-0.7191 1.0135,-1.5782 1.0694,-2.4881 0.0126,-0.2053 -0.1685,-0.3806 -0.4044,-0.3915zm-9.0803 18.6754c0.2562,0.5482 -0.2277,0.8584 -0.3658,0.9333 -2.1425,0.8689 -4.472,0.7989 -5.6788,0.6782 -0.5247,-0.077 -0.7331,-0.3258 -0.5495,-0.883 0.879,-2.1966 -0.2621,-4.2587 -2.002,-5.0013 -1.7358,-0.7409 -3.7369,-0.137 -4.1205,-0.0084 -0.671,0.2249 -1.2826,-0.2772 -0.9493,-0.9149 0.4098,-0.784 -0.0262,-1.4291 -0.4755,-1.7941l0.2107 -0.3207c0.1061,-0.1615 0.0588,-0.3662 -0.1106,-0.4796l-0.4179 -0.2796c0.1546,-0.6142 0.2832,-0.7373 0.1729,-0.9377l-0.6357 -1.1558c0.69,0.0045 1.7436,0.1278 2.3357,-0.5154 0.4035,-0.4383 0.462,-1.112 0.1786,-2.0596 -0.2414,-0.8076 -0.1246,-1.6023 0.1724,-2.3311 0.6033,0.2533 1.8253,0.7956 3.2965,1.6062 0.1996,0.1099 0.4639,0.0584 0.5905,-0.1152 0.1265,-0.1736 0.0671,-0.4035 -0.1325,-0.5135 -1.2102,-0.6667 -2.4629,-1.2648 -3.4148,-1.6639 0.57,-0.9808 1.3953,-1.7886 1.9457,-2.2647 4.4054,1.9922 9.0793,5.0659 12.1408,8.5412 0.0596,0.0675 0.1183,0.1353 0.1766,0.203 0.0112,0.013 0.0226,0.0259 0.0337,0.0389 0.4573,0.5343 0.8764,1.0751 1.2564,1.6218 -0.9245,0.6201 -2.0033,1.0174 -3.1304,1.1791 -1.6404,-2.4604 -4.1847,-4.7535 -7.5671,-6.8194 -0.1933,-0.1182 -0.4602,-0.0776 -0.5961,0.0906 -0.1358,0.1681 -0.0891,0.4002 0.1043,0.5183 3.2026,1.9561 5.6235,4.1131 7.2047,6.4164 -0.3396,0.159 -0.6558,0.4324 -0.6578,0.8577 -0.0779,0.3599 -0.4968,2.6838 0.9848,5.3732z"/>
  </g>
</svg>
