
<svg xmlns="http://www.w3.org/2000/svg" xml:space="preserve" version="1.1" style="shape-rendering:geometricPrecision; text-rendering:geometricPrecision; image-rendering:optimizeQuality; fill-rule:evenodd; clip-rule:evenodd"
viewBox="0 0 26.2466 26.2466"
 xmlns:xlink="http://www.w3.org/1999/xlink">
 <defs>
  <style type="text/css">
   <![CDATA[
    .str0 {stroke:#000000;stroke-width:0.6773;stroke-miterlimit:22.9256}
    .color-fixo {fill:#000000}
    .color-varia {fill:#698F3F}
   ]]>
  </style>
 </defs>
 <g id="icon-escudo">
  <path class="color-fixo" d="M18.9335 6.6017l0.6682 -0.6682 0.6454 0.6454 -1.1004 1.1004 0.5754 0.5755 1.2689 -1.2689 2.146 0 2.4641 -6.406 -6.4064 2.4637 0 2.1459 -0.8367 0.8368 0.5755 0.5754zm1.0751 -2.9993l4.1751 -1.6055 -1.6059 4.175 -1.5868 0 -0.2034 -0.2034 2.3575 -2.3576 -0.5755 -0.5754 -2.3575 2.3575 -0.2035 -0.2034 0 -1.5872z"/>
  <polygon class="color-fixo" points="19.889,18.0926 19.3136,18.6681 24.7237,24.0782 24.0782,24.7236 19.0751,19.7205 18.4996,20.2959 24.0782,25.8745 25.8746,24.0782 "/>
  <polygon class="color-fixo" points="2.1024,24.7236 1.457,24.0782 6.8671,18.6681 6.2916,18.0926 0.3061,24.0782 2.1024,25.8745 7.681,20.2959 7.1056,19.7205 "/>
  <path class="color-fixo" d="M5.1896 6.9859l1.2689 1.2689 0.5754 -0.5755 -1.1004 -1.1004 0.6454 -0.6454 0.6683 0.6682 0.5754 -0.5754 -0.8367 -0.8367 0 -2.146 -6.4059 -2.4637 2.4637 6.406 2.1459 0zm0.9824 -3.3835l0 1.5867 -0.2035 0.2035 -2.3575 -2.3571 -0.5754 0.5754 2.3575 2.3576 -0.2035 0.2034 -1.5867 0 -1.6059 -4.175 4.175 1.6055z"/>
  <path class="color-varia str0" d="M13.0903 25.706l-0.1921 -0.1021c-4.6507,-2.4747 -7.5401,-7.27 -7.5401,-12.5136 0,-5.2437 2.8894,-10.0389 7.5401,-12.5136l0.1921 -0.1022 0.1921 0.1022c4.6507,2.4747 7.5402,7.2699 7.5402,12.5136 0,5.2436 -2.8894,10.0389 -7.5402,12.5136l-0.1921 0.1021z"/>
  <path class="color-fixo" d="M13.3862 6.6697l-0.2959 -0.3138 -0.2958 0.3138c-1.6466,1.7446 -2.5529,4.0248 -2.5529,6.4206 0,2.3957 0.9063,4.6759 2.5529,6.4206l0.2958 0.3137 0.2959 -0.3137c1.6465,-1.7447 2.5528,-4.0249 2.5528,-6.4206 0,-2.3958 -0.9063,-4.676 -2.5528,-6.4206zm-0.2959 11.9524c-1.3153,-1.5452 -2.0348,-3.4926 -2.0348,-5.5318 0,-2.0393 0.7195,-3.9866 2.0348,-5.5318 1.3153,1.5452 2.0348,3.4925 2.0348,5.5318 0,2.0392 -0.7195,3.9865 -2.0348,5.5318z"/>
  <path class="color-fixo" d="M16.9629 20.2585c1.4602,-2.1138 2.2318,-4.5926 2.2318,-7.1682 0,-4.3574 -2.2008,-8.3472 -5.8875,-10.6721l-0.2169 -0.1368 -0.2169 0.1372c-3.6866,2.3245 -5.8875,6.3143 -5.8875,10.6717 0,4.3573 2.2009,8.3471 5.8875,10.6721l0.2169 0.1367 0.2169 -0.1371c1.2445,-0.7851 2.3315,-1.7691 3.2313,-2.9253l-0.6422 -0.5001c-0.1868,0.2401 -0.3838,0.4713 -0.5876,0.6951l-0.077 -1.6555 1.5966 -0.4379c-0.1669,0.2914 -0.3431,0.5783 -0.5356,0.857l0.6702 0.4632zm0.3753 -12.0318c0.3544,0.7858 0.621,1.6136 0.7964,2.469l-1.3841 -0.9104 0.5877 -1.5586zm0.9689 3.5727c0.046,0.4257 0.0737,0.8558 0.0737,1.2909 0,0.4326 -0.0313,0.8607 -0.0777,1.286l-1.0292 -1.286 1.0332 -1.2909zm-0.177 3.6883c-0.1746,0.8452 -0.4415,1.6661 -0.7972,2.4531l-0.5824 -1.5452 1.3796 -0.9079zm-1.2957 -8.2446l-1.6027 -0.4396 0.0774 -1.6628c0.5884,0.6442 1.0963,1.3511 1.5253,2.1024zm-3.7441 -3.9964c0.5283,0.3492 1.0182,0.7391 1.4757,1.1582l-1.4757 0.8856 -1.4756 -0.8856c0.4574,-0.4187 0.9474,-0.809 1.4756,-1.1582zm-2.2183 1.8944l0.0773 1.6629 -1.6026 0.4395c0.4285,-0.7517 0.9364,-1.4586 1.5253,-2.1024zm-2.0295 12.8127c-0.3545,-0.7858 -0.6211,-1.6136 -0.7965,-2.4694l1.3841 0.9108 -0.5876 1.5586zm-0.969 -3.5727c-0.046,-0.4256 -0.0737,-0.8558 -0.0737,-1.2908 0,-0.4351 0.0277,-0.8652 0.0737,-1.2909l1.0333 1.2909 -1.0333 1.2908zm0.1725 -3.6854c0.1754,-0.8558 0.442,-1.6832 0.7965,-2.469l0.5876 1.5586 -1.3841 0.9104zm1.3003 8.2414l1.6026 0.4395 -0.0773 1.6628c-0.5885,-0.6438 -1.0964,-1.3507 -1.5253,-2.1023zm3.744 3.9967c-0.5282,-0.3492 -1.0182,-0.739 -1.4756,-1.1582l1.4756 -0.8855 1.4777 0.8867c-0.4599,0.4225 -0.9527,0.8095 -1.4777,1.157zm1.3914 -2.1581l-1.3914 -0.8347 -1.3914 0.8347 0.0932 -2.012 -2.1618 -0.593 0.7908 -2.0974 -1.8729 -1.2323 1.4004 -1.7507 -1.4004 -1.7508 1.8729 -1.2323 -0.7908 -2.0974 2.1618 -0.593 -0.0932 -2.012 1.3914 0.8347 1.3914 -0.8347 -0.0932 2.012 2.1618 0.593 -0.7907 2.0974 1.8728 1.2323 -1.4003 1.7508 1.4003 1.7507 -1.8728 1.2323 0.7907 2.0975 -2.1618 0.5929 0.0932 2.012z"/>
  <path class="color-fixo" d="M13.0903 11.4624c-0.8977,0 -1.6278,0.7301 -1.6278,1.6279 0,0.8977 0.7301,1.6278 1.6278,1.6278 0.8978,0 1.6279,-0.7301 1.6279,-1.6278 0,-0.8978 -0.7301,-1.6279 -1.6279,-1.6279zm0 2.4418c-0.4485,0 -0.8139,-0.3655 -0.8139,-0.8139 0,-0.4489 0.3654,-0.814 0.8139,-0.814 0.4485,0 0.8139,0.3651 0.8139,0.814 0,0.4484 -0.3654,0.8139 -0.8139,0.8139z"/>
 </g>
</svg>
